<svg width="441" height="267" viewBox="0 0 441 267" fill="none" xmlns="http://www.w3.org/2000/svg">
<path d="M342.517 18.4043H275.33C274.9 18.4043 274.487 18.5751 274.183 18.8791C273.878 19.1832 273.708 19.5955 273.708 20.0254V36.9762C273.708 37.4061 273.878 37.8185 274.183 38.1225C274.487 38.4265 274.9 38.5973 275.33 38.5973H281.377V44.1845L288.408 38.5973H342.496C342.926 38.5973 343.339 38.4265 343.643 38.1225C343.947 37.8185 344.118 37.4061 344.118 36.9762V20.0308C344.12 19.6037 343.952 19.1932 343.653 18.8886C343.353 18.5841 342.945 18.41 342.517 18.4043Z" fill="#2F2E41"/>
<path d="M122.566 183.303C122.566 183.303 122.48 190.101 124.551 191.781C126.285 190.262 127.628 188.35 128.467 186.205C126.435 185.377 124.463 184.407 122.566 183.303Z" fill="#2563EB"/>
<path d="M266.703 264.356L273.918 191.284C273.918 191.284 306.268 197.044 319.99 191.284L317.204 264.356H298.939L296.954 215.319L287.581 264.356H266.703Z" fill="#3F3D56"/>
<path d="M266.703 264.356L273.918 191.284C273.918 191.284 306.268 197.044 319.99 191.284L317.204 264.356H298.939L296.954 215.319L287.581 264.356H266.703Z" fill="#2F2E41"/>
<path d="M132.892 216.065C132.892 216.065 131.101 194.91 143.168 179.121C143.168 179.121 147.344 186.718 165.387 184.93C165.387 184.93 174.29 183.352 178.411 181.012C178.411 181.012 185.518 196.553 185.069 213.233C185.069 213.233 182.365 260.654 181.489 264.356H164.511C164.511 264.356 158.697 222.619 158.248 217.383C158.248 217.383 158.248 252.295 159.74 264.334H141.848C141.848 264.334 131.945 230.719 132.892 216.065Z" fill="#2F2E41"/>
<path d="M131.269 174.501L132.015 149.18C132.762 134.283 154.045 131.835 154.045 131.835C154.045 131.835 174.815 129.511 181.089 133.24L206.288 152.811L204.498 184.038L194.654 193.424C194.654 193.424 186.303 178.834 186.752 175.992L197.19 167.347C197.19 167.347 183.322 158.112 181.981 155.578C181.981 155.578 172.786 173.307 181.684 188.647C181.684 188.647 173.333 195.504 163.191 196.547C163.191 196.547 160.26 153.492 166.723 134.574C166.723 134.574 159.351 139.437 153.104 134.574C153.104 134.574 147.387 146.046 148.431 164.067C148.431 164.067 150.968 189.69 148.431 195.65C148.431 195.65 138.506 193.527 136.716 190.998C136.716 190.998 138.106 188.334 139.782 181.947C139.782 181.947 137.078 191.776 124.573 191.776C124.551 191.781 130.917 186.124 131.269 174.501Z" fill="#2563EB"/>
<path d="M205.233 189.133L193.74 264.356H212.232L223.617 215.087C223.715 214.647 223.959 214.253 224.31 213.97C224.661 213.687 225.097 213.532 225.548 213.53C226 213.53 226.438 213.684 226.789 213.968C227.14 214.251 227.384 214.646 227.479 215.087L238.87 264.356H258.158L247.183 189.133H205.233Z" fill="#2F2E41"/>
<path d="M200.949 183.795V187.442C200.949 188.253 201.246 189.037 201.784 189.644C202.322 190.251 203.064 190.641 203.87 190.738C211.707 191.684 233.905 194.521 247.14 190.927C247.962 190.7 248.678 190.192 249.165 189.493C249.652 188.793 249.879 187.945 249.806 187.096L249.563 184.287L223.217 177.721L200.949 183.795Z" fill="#3F3D56"/>
<path d="M200.949 183.795V187.442C200.949 188.253 201.246 189.037 201.784 189.644C202.322 190.251 203.064 190.641 203.87 190.738C211.707 191.684 233.905 194.521 247.14 190.927C247.962 190.7 248.678 190.192 249.165 189.493C249.652 188.793 249.879 187.945 249.806 187.096L249.563 184.287L223.217 177.721L200.949 183.795Z" fill="#2563EB"/>
<path opacity="0.2" d="M200.949 183.795V187.442C200.949 188.253 201.246 189.037 201.784 189.644C202.322 190.251 203.064 190.641 203.87 190.738C211.707 191.684 233.905 194.521 247.14 190.927C247.962 190.7 248.678 190.192 249.165 189.493C249.652 188.793 249.879 187.945 249.806 187.096L249.563 184.287L223.217 177.721L200.949 183.795Z" fill="white"/>
<path d="M250.802 168.968L217.003 163.024L213.292 170.837L211.859 174.322L223.655 179.121C223.655 179.121 256.919 192.003 261.56 180.882C261.56 180.882 264.367 176.165 261.716 165.861C261.62 165.487 261.542 165.108 261.484 164.726C260.943 161.332 257.665 142.685 246.713 138.114C246.713 138.114 238.897 134.936 236.642 134.542H214.093C214.093 134.542 197.531 136.876 193.421 149.369C193.421 149.369 187.471 163.915 187.59 174.322C187.59 174.322 186.66 184.724 196.071 185.13C196.071 185.13 215.153 185.048 223.655 179.132L211.859 174.322L213.314 170.821C210.634 170.515 207.929 170.515 205.249 170.821C205.249 170.821 207.088 166.039 207.218 161.403" fill="#2563EB"/>
<path opacity="0.2" d="M250.802 168.968L217.003 163.024L213.292 170.837L211.859 174.322L223.655 179.121C223.655 179.121 256.919 192.003 261.56 180.882C261.56 180.882 264.367 176.165 261.716 165.861C261.62 165.487 261.542 165.108 261.484 164.726C260.943 161.332 257.665 142.685 246.713 138.114C246.713 138.114 238.897 134.936 236.642 134.542H214.093C214.093 134.542 197.531 136.876 193.421 149.369C193.421 149.369 187.471 163.915 187.59 174.322C187.59 174.322 186.66 184.724 196.071 185.13C196.071 185.13 215.153 185.048 223.655 179.132L211.859 174.322L213.314 170.821C210.634 170.515 207.929 170.515 205.249 170.821C205.249 170.821 207.088 166.039 207.218 161.403" fill="white"/>
<path opacity="0.2" d="M217.008 163.008C216.018 164.585 215.439 166.428 214.455 168.384C213.484 170.32 212.612 172.304 211.843 174.328C214.731 175.582 217.792 176.786 220.929 178.018C225.943 179.964 231.909 182.125 235.69 182.963C235.69 182.963 249.558 186.848 256.205 184.886C256.205 184.886 262.971 185.005 262.836 173.836L262.484 169.67L250.802 168.968L217.008 163.008Z" fill="black"/>
<path d="M216.348 131.121C216.348 131.121 225.153 128.112 233.526 130.97C232.623 132.483 231.644 134.034 230.568 135.617C228.777 138.265 226.965 140.664 225.202 142.82L216.348 131.121Z" fill="#2563EB"/>
<path opacity="0.2" d="M216.348 131.121C216.348 131.121 225.153 128.112 233.526 130.97C232.623 132.483 231.644 134.034 230.568 135.617C228.777 138.265 226.965 140.664 225.202 142.82L216.348 131.121Z" fill="white"/>
<path d="M149.529 183.562C149.529 183.562 153.169 185.405 162.661 185.135L162.715 165.099C162.715 165.099 163.007 144.69 166.701 134.58C166.701 134.58 159.362 139.286 153.082 134.58C153.082 134.58 148.036 144.382 148.296 158.134C148.22 159.819 148.171 161.543 148.16 163.299C148.109 170.078 148.567 176.852 149.529 183.562Z" fill="#CCCCCC"/>
<path d="M147.858 113.809C147.858 113.809 145.213 101.964 150.659 99.3056C150.659 99.3056 156.609 95.1287 162.445 98.6734C162.445 98.6734 172.959 96.901 174.101 108.94C174.101 108.94 173.468 125.777 177.01 131.851H167.383L145.845 134.012C145.845 134.012 149.231 121.606 147.858 113.809Z" fill="#2F2E41"/>
<path opacity="0.2" d="M122.566 183.303C122.566 183.303 122.48 190.101 124.551 191.781C124.551 191.781 127.256 189.123 128.467 186.205C128.467 186.205 124.465 184.962 122.566 183.303Z" fill="#231F20"/>
<path d="M174.614 183.881C174.614 183.881 170.201 185.81 167.259 186.302C166.677 186.396 166.081 186.319 165.543 186.081C165.004 185.843 164.546 185.455 164.224 184.962L163.034 183.173C162.748 182.741 162.596 182.233 162.596 181.714V180.693C162.596 180.205 162.73 179.726 162.985 179.309C163.24 178.892 163.605 178.554 164.04 178.332C166.848 176.895 173.078 174.101 176.664 175.582C177.031 175.736 177.358 175.971 177.622 176.268C178.568 177.294 181.062 180.023 181.457 180.79C181.457 180.79 185.275 180.25 187.222 178.445C187.222 178.445 189.775 184.308 190.332 185.4C190.332 185.4 183.117 191.398 178.622 188.177C178.622 188.204 175.788 186.129 174.614 183.881Z" fill="#F9B499"/>
<path opacity="0.2" d="M139.923 174.322C139.923 174.322 141.091 164.947 140.409 159.29C140.409 159.29 142.264 168.562 141.291 174.322H139.923Z" fill="#231F20"/>
<path d="M137.175 196.169C136.474 196.169 135.777 196.069 135.104 195.872L135.212 195.542C135.385 195.601 139.463 196.931 141.08 193.548L141.416 193.672C141.038 194.463 140.432 195.122 139.677 195.567C138.921 196.012 138.05 196.221 137.175 196.169Z" fill="#3F3D56"/>
<g opacity="0.2">
<path d="M183.977 199.6C174.782 198.627 174.301 193.262 174.295 193.208L174.69 193.013C174.69 193.067 175.02 198.309 183.912 199.249L183.977 199.6Z" fill="#231F20"/>
</g>
<path d="M218.598 144.868L214.093 134.542L216.348 131.121L223.482 140.551L218.598 144.868Z" fill="#2563EB"/>
<path d="M226.949 140.896L231.72 144.868L236.625 134.542L233.526 130.97L226.949 140.896Z" fill="#2563EB"/>
<path d="M219.783 124.967L218.641 134.153L225.202 142.82L226.949 140.761L231.563 133.893L230.124 124.967H219.783Z" fill="#F9B499"/>
<path d="M206.991 164.072C206.991 164.072 214.444 163.926 216.094 164.996L213.325 170.821C213.325 170.821 206.699 170.318 205.26 170.821C205.233 170.837 206.742 166.304 206.991 164.072Z" fill="#F9B499"/>
<path d="M240.109 167.082C240.109 167.082 243.646 161.095 249.639 160.598C250.459 160.537 251.283 160.642 252.062 160.907C252.841 161.171 253.558 161.59 254.171 162.138C254.412 162.352 254.605 162.613 254.74 162.905C254.875 163.197 254.949 163.514 254.957 163.836C254.964 164.157 254.906 164.477 254.785 164.775C254.663 165.073 254.482 165.343 254.252 165.569L250.802 168.968L240.109 167.082Z" fill="#F9B499"/>
<path d="M293.498 120.277C293.498 120.277 293.498 120.417 293.466 120.66C293.287 122.66 292.384 131.878 290.366 132.942L291.113 137.995C291.113 137.995 300.502 140.518 304.38 137.995V131.511C304.38 131.511 303.412 131.581 303.412 130.84L303.564 127.858L293.498 120.277Z" fill="#F9B499"/>
<path d="M272.918 165.563L275.006 199.827C275.006 199.827 291.708 206.236 294.542 205.339C294.542 205.339 295.434 159.457 293.72 147.835L286.786 134.542C284.027 134.11 273.226 139.621 270.251 141.177C269.74 141.446 269.308 141.843 268.997 142.328C263.507 151.123 259.488 160.752 257.097 170.837C257.097 170.837 259.802 191.041 266.043 199.827C266.043 199.827 275.141 197.293 276.628 194.315C276.628 194.315 271.263 176.587 269.77 173.906C269.786 173.906 270.235 173.458 272.918 165.563Z" fill="#2563EB"/>
<path d="M305.43 205.425L304.386 148.877L306.674 131.948C306.674 131.948 324.815 139.513 326.453 150.52L328.541 159.976L330.034 158.56L326.756 185.405C326.756 185.405 322.581 186.27 321.683 181.358L322.283 202.658C322.283 202.658 316.312 205.495 305.43 205.425Z" fill="#2563EB"/>
<path opacity="0.2" d="M321.083 164.072L321.677 181.363C321.677 181.363 322.375 186.189 326.751 185.41L327.016 183.249C327.016 183.249 321.78 183.341 321.083 164.072Z" fill="black"/>
<path d="M267.936 199.243C267.936 199.243 268.894 205.187 272.572 206.976C272.572 206.976 278.294 204.101 280.75 201.913C280.75 201.913 282.913 204.198 283.806 204.198C284.102 204.201 284.393 204.122 284.647 203.97C284.902 203.819 285.11 203.601 285.249 203.34C285.388 203.079 285.453 202.785 285.437 202.489C285.421 202.194 285.325 201.909 285.158 201.664C284.13 200.243 282.859 199.013 281.404 198.033C279.897 197.078 278.143 196.584 276.358 196.612C275.792 196.662 275.228 196.502 274.773 196.163C274.773 196.163 270.186 199.206 267.936 199.243Z" fill="#F9B499"/>
<path d="M346.828 164.785L329.482 163.051L317.204 264.356H335.297L346.828 164.785Z" fill="#2F2E41"/>
<path opacity="0.2" d="M324.046 261.8L335.107 163.613L340.862 164.077L330.029 264.356H323.7L324.046 261.8Z" fill="white"/>
<path d="M330.029 156.956L329.482 163.051L346.828 164.785L347.445 159.106L330.029 156.956Z" fill="#2F2E41"/>
<path opacity="0.2" d="M330.029 156.956L329.482 163.051L346.828 164.785L347.445 159.106L330.029 156.956Z" fill="black"/>
<path d="M330.591 150.92L330.05 156.977L347.466 159.139L348.088 152.541C348.172 151.683 348.086 150.817 347.834 149.992C347.583 149.168 347.17 148.401 346.621 147.736C346.071 147.072 345.396 146.522 344.633 146.119C343.871 145.715 343.036 145.467 342.177 145.387L337.725 144.971C336.865 144.891 335.998 144.982 335.174 145.239C334.349 145.495 333.584 145.911 332.921 146.464C332.258 147.017 331.711 147.695 331.311 148.46C330.911 149.225 330.666 150.061 330.591 150.92Z" fill="#2F2E41"/>
<path d="M339.986 145.889C339.986 145.889 336.135 152.179 345.579 154.394C345.579 154.394 350.127 155.907 350.246 150.142C350.246 150.142 350.711 143.447 342.317 142.512C342.317 142.512 334.848 141.572 334.383 145.376C334.348 145.65 334.372 145.928 334.453 146.192C334.535 146.456 334.671 146.7 334.854 146.907C335.036 147.115 335.261 147.281 335.512 147.395C335.764 147.509 336.037 147.569 336.313 147.57C337.184 147.559 338.39 147.175 339.986 145.889Z" fill="#F9B499"/>
<path d="M294.774 193.635C294.774 193.635 294.985 156.475 293.72 147.835C293.72 147.835 291.713 142.069 291.113 137.995C291.113 137.995 300.876 140.443 304.38 137.995V148.877L305.213 193.797L294.774 193.635Z" fill="#CCCCCC"/>
<path d="M94.1814 145.327L122.783 148.607C123.306 148.671 123.799 148.886 124.202 149.225C124.604 149.565 124.899 150.015 125.049 150.52L134.314 182.147L126.401 181.261L100.239 176.781L92.3803 147.418C92.3085 147.156 92.3024 146.879 92.3624 146.614C92.4225 146.348 92.5468 146.101 92.7247 145.895C92.9025 145.688 93.1283 145.529 93.3823 145.43C93.6362 145.331 93.9107 145.296 94.1814 145.327Z" fill="#2F2E41"/>
<path d="M121.42 148.45H125.157C125.58 148.449 125.992 148.585 126.331 148.837C126.671 149.09 126.919 149.445 127.039 149.85L136.137 179.953L157.577 176.824C157.751 176.799 157.929 176.811 158.098 176.86C158.267 176.909 158.423 176.994 158.557 177.109C158.69 177.223 158.797 177.366 158.871 177.525C158.944 177.685 158.983 177.859 158.983 178.035C158.983 178.334 158.872 178.624 158.673 178.848C158.474 179.071 158.199 179.215 157.901 179.25L134.336 182.147L125.049 150.52C125.049 150.52 124.551 148.137 121.42 148.45Z" fill="#2F2E41"/>
<path opacity="0.2" d="M121.42 148.45H125.157C125.58 148.449 125.992 148.585 126.331 148.837C126.671 149.09 126.919 149.445 127.039 149.85L136.137 179.953L157.577 176.824C157.751 176.799 157.929 176.811 158.098 176.86C158.267 176.909 158.423 176.994 158.557 177.109C158.69 177.223 158.797 177.366 158.871 177.525C158.944 177.685 158.983 177.859 158.983 178.035C158.983 178.334 158.872 178.624 158.673 178.848C158.474 179.071 158.199 179.215 157.901 179.25L134.336 182.147L125.049 150.52C125.049 150.52 124.551 148.137 121.42 148.45Z" fill="#231F20"/>
<path d="M134.233 173.701L156.376 176.997L136.115 179.953L134.233 173.701Z" fill="#2F2E41"/>
<path d="M153.082 134.58C153.082 134.58 154.57 131.835 154.548 127.242L163.121 122.465L165.609 118.71L167.383 131.835L166.701 134.58C166.701 134.58 158.459 140.07 153.082 134.58Z" fill="#F9B499"/>
<path d="M113.188 173.831C112.516 173.66 111.811 173.673 111.146 173.87C110.482 174.066 109.883 174.439 109.414 174.948C108.944 175.457 108.621 176.084 108.479 176.761C108.337 177.439 108.381 178.142 108.606 178.797C109.304 180.958 111.311 183.303 116.719 183.303C116.719 183.303 120.598 183.217 122.583 183.303C122.583 183.303 126.185 185.746 128.483 186.205C129.197 184.699 129.786 183.137 130.247 181.536C130.247 181.536 121.804 181.666 119.262 178.046C119.245 178.046 116.363 174.663 113.188 173.831Z" fill="#F9B499"/>
<path d="M206.639 159.528L206.964 164.072C206.964 164.072 214.309 163.986 216.067 164.996L217.446 162.262L206.639 159.528Z" fill="#2563EB"/>
<path opacity="0.2" d="M206.639 159.528L206.964 164.072C206.964 164.072 214.309 163.986 216.067 164.996L217.446 162.262L206.639 159.528Z" fill="white"/>
<path opacity="0.2" d="M273.059 168.995L277.245 160.246L273.405 174.658L273.059 168.995Z" fill="black"/>
<path opacity="0.2" d="M280.944 197.752C280.944 197.752 284.006 199.573 285.169 201.664C285.169 201.664 285.753 202.88 285.244 203.415L287.581 204.123V203.582C287.159 201.272 286.068 199.137 284.442 197.442C282.816 195.746 280.727 194.565 278.435 194.045L273.918 181.952L274.135 185.47L276.645 194.294C276.217 195.077 275.57 195.719 274.784 196.142C275.263 196.43 275.81 196.585 276.369 196.59C277.959 196.634 279.52 197.024 280.944 197.73" fill="black"/>
<path d="M284.249 140.54L289.025 141.583L288.295 144.868L293.704 147.835C292.09 142.691 291.241 137.338 291.183 131.948C291.183 131.948 284.877 132.494 284.249 140.54Z" fill="#2563EB"/>
<path opacity="0.2" d="M284.249 140.54L289.025 141.583L288.295 144.868L293.704 147.835C292.09 142.691 291.241 137.338 291.183 131.948C291.183 131.948 284.877 132.494 284.249 140.54Z" fill="white"/>
<path d="M304.38 148.877V131.527C304.38 131.527 308.166 130.035 312.829 140.205L308.686 141.394C308.583 141.422 308.488 141.473 308.407 141.542C308.325 141.611 308.259 141.696 308.214 141.792C308.168 141.888 308.144 141.993 308.142 142.1C308.141 142.206 308.162 142.312 308.204 142.409L309.351 145.008L304.38 148.877Z" fill="#2563EB"/>
<path opacity="0.2" d="M304.38 148.877V131.527C304.38 131.527 308.166 130.035 312.829 140.205L308.686 141.394C308.583 141.422 308.488 141.473 308.407 141.542C308.325 141.611 308.259 141.696 308.214 141.792C308.168 141.888 308.144 141.993 308.142 142.1C308.141 142.206 308.162 142.312 308.204 142.409L309.351 145.008L304.38 148.877Z" fill="white"/>
<path d="M60.5608 81.8307H392.099" stroke="#CCCCCC" stroke-width="1.97" stroke-miterlimit="10"/>
<path d="M388.572 60.1194H64.0873C62.1396 60.1194 60.5608 61.6967 60.5608 63.6425V261.524C60.5608 263.47 62.1396 265.047 64.0873 265.047H388.572C390.52 265.047 392.099 263.47 392.099 261.524V63.6425C392.099 61.6967 390.52 60.1194 388.572 60.1194Z" stroke="#CCCCCC" stroke-width="1.97" stroke-miterlimit="10"/>
<path d="M82.412 71.1966C82.412 71.7961 82.2341 72.3822 81.9007 72.8807C81.5672 73.3792 81.0933 73.7678 80.5389 73.9972C79.9845 74.2266 79.3744 74.2867 78.7858 74.1697C78.1972 74.0527 77.6565 73.764 77.2322 73.3401C76.8078 72.9161 76.5188 72.376 76.4018 71.788C76.2847 71.1999 76.3448 70.5904 76.5744 70.0365C76.8041 69.4826 77.193 69.0092 77.692 68.6761C78.191 68.343 78.7776 68.1652 79.3777 68.1652C80.1825 68.1652 80.9543 68.4846 81.5233 69.0531C82.0923 69.6216 82.412 70.3926 82.412 71.1966Z" fill="#2F2E41"/>
<path opacity="0.2" d="M82.412 71.1966C82.412 71.7961 82.2341 72.3822 81.9007 72.8807C81.5672 73.3792 81.0933 73.7678 80.5389 73.9972C79.9845 74.2266 79.3744 74.2867 78.7858 74.1697C78.1972 74.0527 77.6565 73.764 77.2322 73.3401C76.8078 72.9161 76.5188 72.376 76.4018 71.788C76.2847 71.1999 76.3448 70.5904 76.5744 70.0365C76.8041 69.4826 77.193 69.0092 77.692 68.6761C78.191 68.343 78.7776 68.1652 79.3777 68.1652C80.1825 68.1652 80.9543 68.4846 81.5233 69.0531C82.0923 69.6216 82.412 70.3926 82.412 71.1966Z" fill="white"/>
<path d="M94.1976 71.1966C94.1976 71.7961 94.0197 72.3822 93.6862 72.8807C93.3528 73.3792 92.8789 73.7678 92.3245 73.9972C91.7701 74.2266 91.16 74.2867 90.5714 74.1697C89.9828 74.0527 89.4421 73.764 89.0178 73.3401C88.5934 72.9161 88.3044 72.376 88.1873 71.788C88.0703 71.1999 88.1303 70.5904 88.36 70.0365C88.5897 69.4826 88.9786 69.0092 89.4776 68.6761C89.9765 68.343 90.5632 68.1652 91.1633 68.1652C91.9681 68.1652 92.7398 68.4846 93.3089 69.0531C93.8779 69.6216 94.1976 70.3926 94.1976 71.1966Z" fill="#CCCCCC"/>
<path d="M105.983 71.1966C105.983 71.7961 105.805 72.3822 105.472 72.8807C105.138 73.3792 104.665 73.7678 104.11 73.9972C103.556 74.2266 102.946 74.2867 102.357 74.1697C101.768 74.0527 101.228 73.764 100.803 73.3401C100.379 72.9161 100.09 72.376 99.9729 71.788C99.8558 71.1999 99.9159 70.5904 100.146 70.0365C100.375 69.4826 100.764 69.0092 101.263 68.6761C101.762 68.343 102.349 68.1652 102.949 68.1652C103.754 68.1652 104.525 68.4846 105.094 69.0531C105.664 69.6216 105.983 70.3926 105.983 71.1966Z" fill="#2F2E41"/>
<path d="M435.91 75.0223H356.515C354.726 75.0223 353.275 76.4714 353.275 78.259V151.725C353.275 153.513 354.726 154.962 356.515 154.962H435.91C437.699 154.962 439.149 153.513 439.149 151.725V78.259C439.149 76.4714 437.699 75.0223 435.91 75.0223Z" fill="#EDEDED"/>
<path d="M435.91 75.0223H356.515C354.726 75.0223 353.275 76.4714 353.275 78.259V151.725C353.275 153.513 354.726 154.962 356.515 154.962H435.91C437.699 154.962 439.149 153.513 439.149 151.725V78.259C439.149 76.4714 437.699 75.0223 435.91 75.0223Z" stroke="#CCCCCC" stroke-width="1.97" stroke-miterlimit="10"/>
<path d="M375.343 134.169H417.325C419.124 134.169 420.581 132.713 420.581 130.916V96.2743C420.581 94.4777 419.124 93.0213 417.325 93.0213H375.343C373.545 93.0213 372.087 94.4777 372.087 96.2743V130.916C372.087 132.713 373.545 134.169 375.343 134.169Z" fill="#CCCCCC"/>
<path d="M407.4 120.433H388.443H385.019V105.444H407.4V109.189V120.433Z" stroke="white" stroke-width="1.65" stroke-linecap="round" stroke-linejoin="round"/>
<path d="M385.019 105.444L396.21 114.252L407.4 105.444" stroke="white" stroke-width="1.65" stroke-linecap="round" stroke-linejoin="round"/>
<path d="M79.805 141.815H4.08838C2.38271 141.815 1 143.196 1 144.9V211.034C1 212.738 2.38271 214.119 4.08838 214.119H79.805C81.5107 214.119 82.8934 212.738 82.8934 211.034V144.9C82.8934 143.196 81.5107 141.815 79.805 141.815Z" fill="#EDEDED"/>
<path d="M79.805 141.815H4.08838C2.38271 141.815 1 143.196 1 144.9V211.034C1 212.738 2.38271 214.119 4.08838 214.119H79.805C81.5107 214.119 82.8934 212.738 82.8934 211.034V144.9C82.8934 143.196 81.5107 141.815 79.805 141.815Z" stroke="#CCCCCC" stroke-width="1.97" stroke-miterlimit="10"/>
<path d="M61.7453 154.2H21.5748C19.5913 154.2 17.9834 155.806 17.9834 157.788V196.601C17.9834 198.583 19.5913 200.189 21.5748 200.189H61.7453C63.7288 200.189 65.3367 198.583 65.3367 196.601V157.788C65.3367 155.806 63.7288 154.2 61.7453 154.2Z" fill="#CCCCCC"/>
<path d="M32.4787 168.168C30.6046 170.039 29.3279 172.422 28.8102 175.018C28.2925 177.614 28.557 180.304 29.5702 182.75C30.5835 185.195 32.3 187.285 34.5025 188.756C36.7051 190.227 39.2948 191.012 41.944 191.012C44.5932 191.012 47.1829 190.227 49.3854 188.756C51.588 187.285 53.3045 185.195 54.3177 182.75C55.331 180.304 55.5955 177.614 55.0778 175.018C54.56 172.422 53.2834 170.039 51.4092 168.168C48.8912 165.675 45.4893 164.276 41.944 164.276C38.3987 164.276 34.9968 165.675 32.4787 168.168ZM51.4092 170.092H47.1472C46.6985 168.712 46.1433 167.37 45.4867 166.077C47.8125 166.79 49.8677 168.189 51.3822 170.092H51.4092ZM37.0329 176.857C37.0325 175.11 37.245 173.37 37.6657 171.675H46.2277C46.6593 173.369 46.8827 175.109 46.893 176.857H37.0329ZM46.8118 178.424C46.6845 180.18 46.3764 181.918 45.8924 183.611H38.0064C37.5181 181.919 37.2081 180.18 37.0816 178.424H46.8118ZM41.944 165.574C42.5761 165.573 43.2072 165.622 43.8316 165.72C44.6221 167.115 45.2725 168.585 45.7734 170.108H38.1146C38.6155 168.585 39.2659 167.115 40.0564 165.72C40.6822 165.617 41.3151 165.563 41.9494 165.558L41.944 165.574ZM38.4337 166.115C37.7725 167.406 37.2172 168.748 36.7733 170.129H32.5112C34.0296 168.209 36.0972 166.795 38.4391 166.077L38.4337 166.115ZM31.4457 171.659H36.3135C35.8973 173.361 35.6742 175.105 35.6482 176.857H29.8934C30.0061 175.028 30.5372 173.25 31.4457 171.659ZM31.4457 183.595C30.5404 182.006 30.0095 180.232 29.8934 178.408H35.6753C35.7628 180.16 36.0348 181.899 36.4866 183.595H31.4457ZM32.5274 185.157H36.968C37.4169 186.546 37.959 187.903 38.5906 189.22C36.1923 188.526 34.0683 187.106 32.5112 185.157H32.5274ZM41.9656 189.69C41.4357 189.691 40.9062 189.657 40.3809 189.587C39.659 188.154 39.0338 186.673 38.5095 185.157H45.4164C44.8943 186.674 44.2691 188.155 43.545 189.587C43.0161 189.658 42.483 189.692 41.9494 189.69H41.9656ZM45.3082 189.22C45.953 187.905 46.506 186.547 46.9633 185.157H51.3984C49.8295 187.116 47.687 188.537 45.2704 189.22H45.3082ZM52.464 183.595H47.4338C47.8848 181.899 48.1585 180.16 48.2506 178.408H54.0271C53.9027 180.234 53.3625 182.008 52.4477 183.595H52.464ZM54.0163 176.841H48.2452C48.2128 175.093 47.9842 173.355 47.5637 171.659H52.4315C53.3456 173.249 53.8823 175.027 54 176.857L54.0163 176.841Z" fill="white"/>
<path d="M87.8478 41.2287H20.5309C20.2002 41.2295 19.8725 41.165 19.5668 41.039C19.261 40.9131 18.9831 40.7281 18.749 40.4947C18.5149 40.2613 18.3291 39.9841 18.2024 39.6789C18.0757 39.3737 18.0104 39.0465 18.0104 38.7161C18.0097 38.3852 18.0744 38.0575 18.2009 37.7517C18.3273 37.4458 18.5129 37.168 18.7471 36.934C18.9813 36.7 19.2594 36.5146 19.5655 36.3883C19.8716 36.262 20.1997 36.1974 20.5309 36.1981H87.8478C88.5163 36.1981 89.1574 36.4634 89.63 36.9356C90.1027 37.4078 90.3683 38.0483 90.3683 38.7161C90.3668 39.383 90.1007 40.0221 89.6281 40.4931C89.1556 40.9642 88.5153 41.2287 87.8478 41.2287Z" fill="#CCCCCC"/>
<path d="M437.911 205.495H405.237C404.57 205.495 403.93 205.231 403.458 204.759C402.987 204.288 402.722 203.649 402.722 202.983C402.721 202.652 402.785 202.325 402.912 202.019C403.038 201.714 403.223 201.436 403.456 201.202C403.69 200.969 403.968 200.783 404.273 200.656C404.579 200.53 404.906 200.465 405.237 200.465H437.911C438.579 200.465 439.22 200.73 439.693 201.202C440.166 201.674 440.431 202.315 440.431 202.983C440.43 203.65 440.164 204.289 439.691 204.76C439.219 205.231 438.578 205.495 437.911 205.495Z" fill="#CCCCCC"/>
<path d="M415.384 227.055H410.683C409.829 227.055 409.136 227.747 409.136 228.601V233.048C409.136 233.901 409.829 234.593 410.683 234.593H415.384C416.238 234.593 416.93 233.901 416.93 233.048V228.601C416.93 227.747 416.238 227.055 415.384 227.055Z" fill="#2F2E41"/>
<path d="M36.9193 244.482H32.2191C31.3648 244.482 30.6722 245.173 30.6722 246.027V250.474C30.6722 251.328 31.3648 252.019 32.2191 252.019H36.9193C37.7736 252.019 38.4662 251.328 38.4662 250.474V246.027C38.4662 245.173 37.7736 244.482 36.9193 244.482Z" fill="#2F2E41"/>
<path d="M283.297 25.6072H330.553" stroke="white" stroke-width="1.18" stroke-miterlimit="10"/>
<path d="M283.297 30.4488H302.547" stroke="white" stroke-width="1.18" stroke-miterlimit="10"/>
<path d="M144.569 0H179.693C180.62 0 181.509 0.367765 182.164 1.02239C182.819 1.67702 183.187 2.56489 183.187 3.49067V36.3224C183.187 36.7808 183.097 37.2347 182.921 37.6582C182.746 38.0817 182.488 38.4665 182.164 38.7906C181.839 39.1148 181.454 39.3719 181.03 39.5473C180.606 39.7227 180.152 39.813 179.693 39.813H145.683C144.461 39.813 143.289 39.328 142.425 38.4646C141.56 37.6012 141.075 36.4302 141.075 35.2092V3.49067C141.075 2.56489 141.443 1.67702 142.098 1.02239C142.754 0.367765 143.642 0 144.569 0Z" fill="#CCCCCC"/>
<path d="M171.953 22.8568L169.557 20.4577C169.365 20.236 169.129 20.0571 168.863 19.9324C168.598 19.8076 168.309 19.7399 168.016 19.7336C167.432 19.749 166.878 19.9937 166.474 20.4144L165.106 21.7761L164.846 21.6464C164.7 21.5821 164.557 21.5099 164.419 21.4303C163.066 20.5502 161.865 19.455 160.865 18.1882C160.418 17.6544 160.044 17.0639 159.751 16.4321C160.097 16.1349 160.395 15.789 160.692 15.4918L161.082 15.1082C161.31 14.9119 161.492 14.6688 161.617 14.3956C161.743 14.1224 161.808 13.8255 161.808 13.525C161.808 13.2245 161.743 12.9275 161.617 12.6543C161.492 12.3811 161.31 12.1381 161.082 11.9417L159.881 10.7422C159.742 10.6098 159.614 10.4671 159.497 10.3153L158.68 9.50476C158.481 9.2947 158.243 9.12596 157.978 9.0082C157.714 8.89044 157.428 8.82598 157.139 8.81851C156.849 8.8217 156.562 8.88423 156.297 9.00226C156.032 9.12028 155.794 9.29129 155.597 9.50476L154.099 11.0015C153.538 11.5656 153.19 12.3065 153.115 13.0981C153.062 14.2049 153.247 15.3102 153.656 16.3402C154.409 18.4005 155.543 20.3012 156.998 21.9436C158.878 24.189 161.211 26.012 163.846 27.2931C165.053 27.9035 166.358 28.295 167.702 28.4495H168C168.482 28.4563 168.961 28.3606 169.404 28.1687C169.847 27.9768 170.244 27.6931 170.569 27.3363L170.612 27.2931C170.848 27.0143 171.106 26.7558 171.385 26.5204L171.926 25.98C172.139 25.7801 172.309 25.5392 172.426 25.2718C172.543 25.0044 172.605 24.7161 172.608 24.4242C172.61 24.1324 172.553 23.843 172.441 23.5736C172.329 23.3043 172.163 23.0604 171.953 22.8568ZM170.969 25.0777L170.455 25.618C170.158 25.8774 169.914 26.1584 169.601 26.4772C169.403 26.6863 169.164 26.8513 168.898 26.9612C168.633 27.0711 168.347 27.1234 168.059 27.1148H167.848C166.678 26.993 165.542 26.6442 164.506 26.0881C162.05 24.8864 159.875 23.1815 158.123 21.0845C156.806 19.5418 155.751 17.7929 155.002 15.9079C154.602 15.0836 154.425 14.1688 154.489 13.2548C154.501 13.0194 154.56 12.7888 154.662 12.5764C154.764 12.364 154.907 12.174 155.084 12.0174L156.544 10.5638C156.695 10.389 156.908 10.2803 157.139 10.2613C157.255 10.2655 157.369 10.2948 157.472 10.347C157.576 10.3992 157.667 10.4732 157.739 10.5638L158.513 11.3311C158.641 11.4866 158.784 11.6296 158.94 11.758L160.141 12.9576C160.304 13.1187 160.409 13.3299 160.438 13.5574C160.418 13.7874 160.311 14.0014 160.141 14.1572L159.751 14.5408L158.67 15.6215L158.626 15.6648C158.474 15.7941 158.367 15.9688 158.321 16.1633C158.275 16.3578 158.293 16.5618 158.372 16.7455V16.7833C158.732 17.6166 159.207 18.3951 159.784 19.096C160.876 20.4889 162.194 21.689 163.683 22.6461C163.853 22.7639 164.034 22.8635 164.224 22.9433C164.37 23.0076 164.513 23.0798 164.652 23.1594L164.695 23.2026C164.889 23.3073 165.113 23.3429 165.33 23.3037C165.548 23.2644 165.745 23.1526 165.89 22.9865L167.388 21.4897C167.544 21.3192 167.758 21.2132 167.989 21.1925C168.198 21.2255 168.39 21.3307 168.53 21.4897L170.926 23.8889C171.011 23.9608 171.08 24.0497 171.129 24.15C171.178 24.2502 171.205 24.3596 171.21 24.471C171.214 24.5824 171.194 24.6935 171.153 24.7971C171.111 24.9006 171.049 24.9943 170.969 25.0723V25.0777Z" fill="white"/>
<path d="M154.526 127.242L154.462 129.003C155.762 129.218 157.097 129.073 158.321 128.585C159.545 128.096 160.612 127.282 161.406 126.231L154.526 127.242Z" fill="#F4A48E"/>
<path d="M170.812 116.246C170.406 118.375 168.703 119.823 167.026 119.488C166.492 119.378 166.004 119.107 165.631 118.71C164.662 123.929 161.239 127.782 157.166 127.782C152.341 127.782 148.431 122.379 148.431 115.694C148.431 109.01 152.341 103.607 157.166 103.607C161.298 103.607 164.738 107.568 165.668 112.895C165.994 112.475 166.427 112.149 166.922 111.953C167.417 111.758 167.955 111.698 168.481 111.782C170.158 112.123 171.212 114.117 170.812 116.246Z" fill="#F9B499"/>
<path d="M148.409 114.619C148.409 114.619 149.004 109.156 152.385 107.962C152.385 107.962 158.307 105.801 158.724 103.807C158.724 103.807 165.009 109.054 165.009 113.425C165.009 113.425 167.583 109.805 170.071 112.809C170.071 112.809 172.478 116.845 168.595 119.293C168.595 119.293 166.804 120.223 165.609 118.71C165.609 118.71 166.577 130.181 167.383 131.835L172.662 112.015L170.893 106.352L162.423 100.516H152.585C152.585 100.516 147.208 107.622 147.214 107.994C147.219 108.367 148.409 114.619 148.409 114.619Z" fill="#2F2E41"/>
<path d="M219.431 128.047L219.81 124.967C219.81 124.967 224.039 127.442 227.333 127.669C227.306 127.685 226.003 129.273 219.431 128.047Z" fill="#F4A48E"/>
<path d="M224.926 128.047C230.348 128.047 234.743 122.362 234.743 115.349C234.743 108.336 230.348 102.65 224.926 102.65C219.505 102.65 215.11 108.336 215.11 115.349C215.11 122.362 219.505 128.047 224.926 128.047Z" fill="#F9B499"/>
<path d="M235.928 119.082C237.388 119.082 238.573 117.433 238.573 115.397C238.573 113.362 237.388 111.712 235.928 111.712C234.467 111.712 233.283 113.362 233.283 115.397C233.283 117.433 234.467 119.082 235.928 119.082Z" fill="#F9B499"/>
<path d="M213.747 119.082C215.207 119.082 216.391 117.433 216.391 115.397C216.391 113.362 215.207 111.712 213.747 111.712C212.286 111.712 211.102 113.362 211.102 115.397C211.102 117.433 212.286 119.082 213.747 119.082Z" fill="#F9B499"/>
<path d="M215.596 113.722C215.596 113.722 209.225 107.665 215.596 102.996C215.596 102.996 217.3 94.4533 228.134 96.6417C228.134 96.6417 238.654 96.6957 236.625 111.712C235.913 112.447 235.138 113.119 234.31 113.722C234.31 113.722 233.505 108.756 229.529 108.956C229.529 108.956 220.875 109.351 219.188 105.579C217.347 107.962 216.114 110.757 215.596 113.722Z" fill="#2F2E41"/>
<path d="M303.412 130.857L303.466 129.727C303.466 129.727 296.554 129.965 294.775 125.848C294.775 125.848 295.9 130.927 303.412 130.857Z" fill="#F4A48E"/>
<path d="M310.903 118.126C310.903 124.653 306.798 129.944 301.708 129.944C297.436 129.944 293.839 126.161 292.817 121.098C292.385 121.463 291.84 121.666 291.275 121.671C289.62 121.671 288.279 119.893 288.279 117.694C288.279 115.495 289.62 113.722 291.275 113.722C291.915 113.734 292.526 113.989 292.984 114.435C294.19 109.718 297.641 106.33 301.708 106.33C306.798 106.314 310.903 111.604 310.903 118.126Z" fill="#F9B499"/>
<path d="M294.699 114.716L295.499 109.443C295.499 109.443 300.037 110.286 302.628 108.74C302.628 108.74 308.751 113.187 313.618 108.74C313.618 108.74 316.68 105.682 313.618 101.516C313.618 101.516 312.504 98.0358 306.106 100.262C306.106 100.262 299.291 93.8697 293.585 101.791C293.585 101.791 286.64 101.397 288.295 107.768C288.295 107.768 283.697 111.626 288.836 115.392C288.836 115.392 285.05 123.584 293.13 122.346L292.817 121.093C292.817 121.093 290.231 122.897 288.69 119.688C288.69 119.688 287.273 116.246 289.707 114.311C290.044 114.001 290.465 113.799 290.918 113.729C291.371 113.66 291.834 113.727 292.249 113.922C292.952 114.28 293.702 114.536 294.477 114.684L294.699 114.716Z" fill="#2F2E41"/>
</svg>
