<svg width="300" height="225" viewBox="0 0 300 225" fill="none" xmlns="http://www.w3.org/2000/svg">
<path d="M151.74 109.57L108.93 137.09C100 142.83 88.11 140.24 82.37 131.31C76.63 122.38 79.22 110.49 88.15 104.75L130.96 77.23L151.74 109.57Z" fill="#2563EB"/>
<path d="M267.58 90.87C289.3 108.83 289.73 144.49 268.36 162.95C248.47 180.14 217.08 200.95 179.4 203.87C113.78 208.94 52.08 187.58 52.08 187.58C52.08 187.58 10.11 165.16 16.55 120.31C22.99 75.46 14.66 29.02 43.55 22.02C65 16.82 77.16 23.53 80.91 44.42C83.85 60.86 105.66 65.07 115.29 59.5C124.92 53.93 123.41 20.5 153.71 23.46C178.21 25.85 183.75 46.06 182.49 57.97C181.24 69.87 184.52 89.32 197.73 93.15C210.94 96.98 252.59 78.46 267.15 90.5C267.29 90.63 267.43 90.75 267.58 90.87Z" stroke="#2563EB" stroke-width="0.316" stroke-miterlimit="10"/>
<path d="M72.98 85.48C82.66 87.02 86.22 90.18 91.77 95.74C93.87 97.84 96.21 99.88 96.85 102.98C99.51 115.91 111.52 139.24 109.46 187.69C109.34 190.61 107.26 192.94 104.59 193.16C95.44 193.91 74 195.79 53.97 192.88C38.57 190.64 26.23 177.36 24.12 160.53C19.92 127.01 28.7 109.11 28.7 109.11C28.7 109.11 36.01 79.58 72.98 85.48Z" fill="#2563EB"/>
<path d="M178.12 122.44H95.29C93.35 122.44 91.78 120.87 91.78 118.93V65.58C91.78 63.64 93.35 62.07 95.29 62.07H178.12C180.06 62.07 181.63 63.64 181.63 65.58V118.92C181.64 120.87 180.06 122.44 178.12 122.44ZM271.41 122.44H193.17C191.28 122.44 189.75 120.91 189.75 119.02V65.49C189.75 63.6 191.28 62.07 193.17 62.07H271.41C273.3 62.07 274.83 63.6 274.83 65.49V119.02C274.83 120.91 273.3 122.44 271.41 122.44ZM211.57 201.44H135.7C133.15 201.44 131.09 199.38 131.09 196.83V132.49C131.09 129.94 133.15 127.88 135.7 127.88H211.57C214.12 127.88 216.18 129.94 216.18 132.49V196.83C216.18 199.38 214.11 201.44 211.57 201.44Z" fill="#EDEDED" stroke="#2563EB" stroke-width="0.316" stroke-miterlimit="10"/>
<path d="M101.99 72.32V116.72H155.66" stroke="#2563EB" stroke-width="0.316" stroke-miterlimit="10"/>
<path d="M109.64 104.88H106.41V112.5H109.64V104.88Z" fill="#2563EB"/>
<path d="M116.18 100.39H112.95V112.5H116.18V100.39Z" fill="#2563EB"/>
<path d="M122.72 90.18H119.49V112.5H122.72V90.18Z" fill="#2563EB"/>
<path d="M129.26 96.77H126.03V112.5H129.26V96.77Z" fill="#2563EB"/>
<path d="M135.79 77.84H132.56V112.5H135.79V77.84Z" fill="#2563EB"/>
<path d="M142.33 86.21H139.1V112.5H142.33V86.21Z" fill="#2563EB"/>
<path d="M148.87 100.85H145.64V112.5H148.87V100.85Z" fill="#2563EB"/>
<path d="M155.41 107.85H152.18V112.5H155.41V107.85Z" fill="#2563EB"/>
<path d="M157.4 89H175.55" stroke="#2563EB" stroke-width="0.316" stroke-miterlimit="10"/>
<path d="M157.4 83.96H175.55" stroke="#2563EB" stroke-width="0.316" stroke-miterlimit="10"/>
<path d="M157.4 78.93H175.55" stroke="#2563EB" stroke-width="0.316" stroke-miterlimit="10"/>
<path d="M174.67 68.48H158.29C157.8 68.48 157.4 68.88 157.4 69.37V74.6C157.4 75.09 157.8 75.49 158.29 75.49H174.67C175.16 75.49 175.56 75.09 175.56 74.6V69.37C175.55 68.87 175.16 68.48 174.67 68.48Z" fill="#2563EB"/>
<path d="M252.89 91.39C252.89 93.03 252.69 94.63 252.31 96.16L233.15 91.39V71.65C244.05 71.65 252.89 80.48 252.89 91.39Z" fill="#2563EB"/>
<path d="M251.27 97.89C249.14 106.49 241.37 112.86 232.11 112.86C222.85 112.86 215.08 106.49 212.95 97.89L232.11 93.12L251.27 97.89Z" fill="#EDEDED" stroke="#2563EB" stroke-width="0.316" stroke-miterlimit="10"/>
<path d="M231.42 71.65V91.39L212.26 96.16C211.88 94.63 211.68 93.04 211.68 91.39C211.68 80.48 220.52 71.65 231.42 71.65Z" fill="#2563EB"/>
<path d="M172.69 138.26V149.68C168.04 149.97 163.97 152.37 161.42 155.94L151.51 150.22C156.06 143.25 163.82 138.57 172.69 138.26Z" fill="#2563EB"/>
<path d="M172.69 179.64V191.06C158.54 190.56 147.21 178.93 147.21 164.65C147.21 160 148.41 155.63 150.52 151.83L160.41 157.54C159.27 159.66 158.62 162.08 158.62 164.65C158.62 172.64 164.84 179.16 172.69 179.64Z" fill="#EDEDED" stroke="#2563EB" stroke-width="0.316" stroke-miterlimit="10"/>
<path d="M196.29 178.27C191.82 185.7 183.8 190.74 174.58 191.07V179.65C179.58 179.34 183.91 176.59 186.4 172.57L196.29 178.27Z" fill="#2563EB"/>
<path d="M200.06 164.66C200.06 168.96 199.03 173.02 197.21 176.61L187.3 170.89C188.16 168.99 188.65 166.88 188.65 164.67C188.65 156.7 182.43 150.18 174.59 149.69V138.27C188.74 138.75 200.06 150.39 200.06 164.66Z" fill="#2563EB"/>
<path d="M51.08 89.26L37.08 79.18C33.94 76.92 32.08 73.29 32.08 69.43C32.09 64.15 33.58 57.08 40.12 52.57C49.75 45.94 58.46 49.83 58.46 49.83C58.46 49.83 61.98 50.82 65.53 47.82C65.53 47.82 70.69 59.55 58.23 64.51C58.23 64.51 50.04 65.58 51.68 74.48C53.31 83.39 51.08 89.26 51.08 89.26Z" fill="#2F2E41"/>
<path d="M64.44 90.35L63.43 81.36L62.98 77.51L62.57 74.04L45.59 72.11L47.46 87.29C47.46 87.29 46.29 87.74 45.06 88.97C45.07 88.97 60.35 101.71 64.44 90.35Z" fill="#EDEDED" stroke="#2563EB" stroke-width="0.316" stroke-miterlimit="10" stroke-linecap="round" stroke-linejoin="round"/>
<path d="M45.93 73.84C49.36 80.97 58.39 85.03 62.71 82.13C68.9 77.97 67.12 72.75 64.98 65.13C62.03 54.6 54.96 54.05 50.28 56.31C45.6 58.57 42.49 66.71 45.93 73.84Z" fill="#EDEDED" stroke="#2563EB" stroke-width="0.316" stroke-miterlimit="10" stroke-linecap="round" stroke-linejoin="round"/>
<path d="M63.47 61.19C63.47 61.19 60.79 64.66 52.63 65.85C44.47 67.04 47.48 77.74 47.48 77.74C47.48 77.74 38.89 78.28 38.79 77.88C38.69 77.48 35.24 64.2 35.24 64.2L47.18 52.33L61.09 52.01L63.47 61.19Z" fill="#2F2E41"/>
<path d="M47.8128 79.0542C50.2026 78.4349 51.5108 75.5058 50.7349 72.5119C49.9589 69.518 47.3926 67.5931 45.0029 68.2125C42.6131 68.8318 41.3049 71.7609 42.0808 74.7548C42.8568 77.7487 45.4231 79.6736 47.8128 79.0542Z" fill="#EDEDED"/>
<path d="M45.31 76.94C45.48 76.9 45.6 76.75 45.6 76.57C45.61 76.05 45.76 75.67 46.06 75.41C46.65 74.9 47.63 75.03 47.64 75.03C47.77 75.05 47.9 75 47.99 74.89C48.08 74.79 48.11 74.65 48.07 74.52C47.14 71.45 44.44 71.18 44.33 71.17C44.11 71.15 43.92 71.31 43.9 71.53C43.88 71.75 44.04 71.94 44.26 71.96C44.35 71.97 46.24 72.18 47.13 74.24C46.67 74.27 46.04 74.4 45.55 74.82C45.07 75.23 44.83 75.82 44.81 76.57C44.81 76.79 44.98 76.97 45.2 76.97C45.24 76.95 45.27 76.95 45.31 76.94Z" fill="#2563EB"/>
<path d="M38.92 111.03L26.26 145.23C19.4 163.77 29.3 184.3 48.08 190.48L78.87 114.35L38.92 111.03Z" fill="#2563EB"/>
<path d="M114.66 51.65C117.61 51.47 120.14 53.71 120.32 56.66L121.07 68.89C121.25 71.84 119.01 74.37 116.06 74.55C113.11 74.73 110.58 72.49 110.4 69.54L109.65 57.31C109.47 54.37 111.72 51.83 114.66 51.65Z" fill="#EDEDED" stroke="#2563EB" stroke-width="0.316" stroke-miterlimit="10" stroke-linecap="round" stroke-linejoin="round"/>
<path d="M125.58 50.69C128.68 50.5 131.34 52.86 131.53 55.95L132.32 68.81C132.51 71.91 130.15 74.57 127.06 74.76C123.96 74.95 121.3 72.59 121.11 69.5L120.32 56.64C120.12 53.54 122.48 50.88 125.58 50.69ZM136.31 50.68C139.11 50.51 141.51 52.64 141.68 55.43L142.39 67.04C142.56 69.84 140.43 72.24 137.64 72.41C134.84 72.58 132.44 70.45 132.27 67.66L131.56 56.05C131.38 53.25 133.51 50.85 136.31 50.68Z" fill="#EDEDED" stroke="#2563EB" stroke-width="0.316" stroke-miterlimit="10" stroke-linecap="round" stroke-linejoin="round"/>
<path d="M146.21 49.37C148.91 49.2 151.23 51.26 151.39 53.96L152.08 65.16C152.25 67.86 150.19 70.18 147.49 70.34C144.79 70.51 142.47 68.45 142.31 65.75L141.62 54.55C141.46 51.86 143.51 49.54 146.21 49.37Z" fill="#EDEDED" stroke="#2563EB" stroke-width="0.316" stroke-miterlimit="10" stroke-linecap="round" stroke-linejoin="round"/>
<path d="M154.58 114.96C153.04 112.99 150.28 112.44 148.1 113.68L127.28 125.48L125.79 123.76C124.67 122.47 122.2 121.74 120.52 122.06C118.25 122.49 115.04 123.78 112.09 127.44C108.41 132 99.96 136.21 95.34 139.11L45.89 159.21L57.81 188.81L109.3 168.21C111.77 168.01 114.1 167.65 115.58 167.01C120.19 165.01 134.02 161.26 134.02 161.26C140.65 160.74 142.32 158.37 142.32 158.37C145.98 153.98 141.67 151.65 141.67 151.65C141.67 151.65 144.49 150.49 144.65 146.43C144.81 142.37 140.62 141.59 140.62 141.59C144.26 139.45 143.56 136.49 143.56 136.49C143.2 131.16 138.86 131.54 138.86 131.54L153.29 122.34C155.83 120.74 156.42 117.31 154.58 114.96Z" fill="#EDEDED" stroke="#2563EB" stroke-width="0.316" stroke-miterlimit="10" stroke-linecap="round" stroke-linejoin="round"/>
<path d="M132.43 134.81C132.36 134.81 132.3 134.77 132.27 134.71C132.23 134.62 132.26 134.51 132.35 134.47L138.81 131.37C138.9 131.33 139.01 131.36 139.05 131.45C139.09 131.54 139.06 131.65 138.97 131.69L132.51 134.79C132.48 134.81 132.45 134.81 132.43 134.81Z" fill="#2563EB"/>
<path d="M133.74 144.58C133.67 144.58 133.6 144.54 133.57 144.47C133.53 144.38 133.58 144.27 133.67 144.24L140.58 141.42C140.67 141.38 140.78 141.43 140.81 141.52C140.85 141.61 140.8 141.72 140.71 141.75L133.8 144.57C133.78 144.58 133.76 144.58 133.74 144.58Z" fill="#2563EB"/>
<path d="M132.53 154.49C132.45 154.49 132.38 154.44 132.36 154.36C132.33 154.27 132.39 154.17 132.48 154.14L141.64 151.47C141.74 151.44 141.83 151.5 141.86 151.59C141.89 151.68 141.83 151.78 141.74 151.81L132.58 154.48C132.56 154.49 132.55 154.49 132.53 154.49Z" fill="#2563EB"/>
<path d="M57 151.62L61.51 130.27" stroke="#2563EB" stroke-width="0.316" stroke-miterlimit="10" stroke-linecap="round" stroke-linejoin="round"/>
<path d="M110.01 171.27L62.99 190.74C53.18 194.8 41.94 190.14 37.88 180.34C33.82 170.53 38.48 159.29 48.28 155.23L95.3 135.76L110.01 171.27Z" fill="#2563EB"/>
<path d="M49.85 154.58L95.3 135.75L110.01 171.27L62.99 190.74" stroke="#2563EB" stroke-width="0.316" stroke-miterlimit="10" stroke-linecap="round" stroke-linejoin="round"/>
</svg>
